<svg xmlns="http://www.w3.org/2000/svg" width="48" height="48" viewBox="0 0 48 48" fill="none">
  <rect width="48" height="48" rx="4" fill="#EF670E"/>
  <path d="M34.5759 13.0509C33.8906 12.3982 32.982 12.0343 32.0374 12.0343C31.0927 12.0343 30.1841 12.3982 29.4989 13.0509L26.6011 15.9478C26.08 16.4769 25.7347 17.1548 25.6125 17.8886C25.4903 18.6225 25.5973 19.3763 25.9186 20.0467L23.3442 22.6311L20.9494 20.227C20.5174 19.7829 19.9784 19.4582 19.3848 19.2844C18.7911 19.1107 18.1628 19.0937 17.5607 19.2351C16.9586 19.3766 16.4031 19.6716 15.9479 20.0918C15.4927 20.5119 15.1532 21.043 14.9624 21.6334L11.7773 31.2497C11.5656 31.8845 11.5341 32.566 11.6864 33.2177C11.8387 33.8695 12.1686 34.4658 12.6394 34.94C12.9809 35.2931 13.3908 35.5723 13.8438 35.7604C14.2969 35.9486 14.7835 36.0416 15.2737 36.0338C15.681 36.0407 16.0863 35.9756 16.4711 35.8415L26.0503 32.6441C26.6385 32.4525 27.1675 32.1117 27.586 31.6547C28.0046 31.1978 28.2985 30.6401 28.4394 30.0356C28.5803 29.4312 28.5634 28.8005 28.3903 28.2045C28.2172 27.6086 27.8937 27.0676 27.4513 26.6339L25.0565 24.2298L27.6309 21.6454C28.2988 21.968 29.0497 22.0754 29.7807 21.9527C30.5117 21.83 31.187 21.4834 31.7141 20.9603L34.5998 18.0514C35.2405 17.3764 35.5959 16.4786 35.5914 15.5463C35.587 14.614 35.223 13.7196 34.5759 13.0509ZM25.6911 28.3768C25.8336 28.5226 25.9368 28.7024 25.9908 28.8992C26.0449 29.0961 26.0482 29.3036 26.0002 29.502C25.9523 29.7005 25.8548 29.8834 25.7169 30.0336C25.579 30.1837 25.4053 30.2961 25.2121 30.3602L15.6568 33.6297C15.4489 33.6935 15.2276 33.6992 15.0166 33.6463C14.8056 33.5933 14.613 33.4837 14.4594 33.3292C14.3055 33.175 14.1963 32.9817 14.1436 32.7699C14.0909 32.5581 14.0966 32.336 14.1601 32.1272L17.3572 22.5109C17.4027 22.2987 17.5047 22.1028 17.6523 21.944C17.7999 21.7853 17.9876 21.6696 18.1953 21.6094C18.2868 21.5987 18.3793 21.5987 18.4707 21.6094C18.7849 21.6107 19.0859 21.7359 19.3089 21.958L21.7037 24.362L20.662 25.3958C20.5498 25.5075 20.4607 25.6405 20.3999 25.787C20.3391 25.9334 20.3078 26.0906 20.3078 26.2492C20.3078 26.4079 20.3391 26.565 20.3999 26.7115C20.4607 26.858 20.5498 26.9909 20.662 27.1027C20.7733 27.2153 20.9058 27.3048 21.0517 27.3658C21.1976 27.4268 21.3541 27.4582 21.5122 27.4582C21.6702 27.4582 21.8267 27.4268 21.9727 27.3658C22.1186 27.3048 22.251 27.2153 22.3623 27.1027L23.3921 26.0569L25.6911 28.3768ZM32.8755 16.4526L29.9898 19.3496C29.8217 19.515 29.6088 19.627 29.3776 19.6716C29.1465 19.7162 28.9073 19.6914 28.6901 19.6003C28.4729 19.5093 28.2873 19.356 28.1564 19.1596C28.0255 18.9632 27.9552 18.7324 27.9542 18.4961C27.9555 18.1808 28.0802 17.8786 28.3015 17.6547L31.1872 14.7458C31.2985 14.6331 31.4309 14.5437 31.5769 14.4826C31.7228 14.4216 31.8793 14.3902 32.0374 14.3902C32.1954 14.3902 32.3519 14.4216 32.4978 14.4826C32.6438 14.5437 32.7762 14.6331 32.8875 14.7458C32.9997 14.8575 33.0888 14.9905 33.1496 15.1369C33.2104 15.2834 33.2417 15.4405 33.2417 15.5992C33.2417 15.7579 33.2104 15.915 33.1496 16.0615C33.0888 16.208 32.9997 16.3409 32.8875 16.4526H32.8755Z" fill="white"/>
</svg>